<svg width="17" height="16" viewBox="0 0 17 16" fill="none" xmlns="http://www.w3.org/2000/svg">
<path fill-rule="evenodd" clip-rule="evenodd" d="M6.18408 1.99997C5.12322 1.99997 4.1058 2.4214 3.35565 3.17155C2.60551 3.92169 2.18408 4.93911 2.18408 5.99997C2.18408 7.06084 2.60551 8.07825 3.35565 8.8284C4.1058 9.57855 5.12322 9.99997 6.18408 9.99997C7.24495 9.99997 8.26236 9.57855 9.01251 8.8284C9.76266 8.07825 10.1841 7.06084 10.1841 5.99997C10.1841 4.93911 9.76266 3.92169 9.01251 3.17155C8.26236 2.4214 7.24495 1.99997 6.18408 1.99997ZM0.184082 5.99997C0.183962 5.05568 0.406725 4.12468 0.834253 3.28271C1.26178 2.44074 1.882 1.71157 2.64448 1.1545C3.40695 0.597426 4.29014 0.228185 5.22223 0.0768059C6.15431 -0.0745733 7.10896 -0.00381595 8.00855 0.283323C8.90813 0.570462 9.72723 1.06587 10.3992 1.72927C11.0713 2.39266 11.5772 3.20531 11.8759 4.10111C12.1747 4.9969 12.2577 5.95056 12.1184 6.88452C11.9791 7.81848 11.6213 8.70637 11.0741 9.47597L15.8911 14.293C16.0732 14.4816 16.174 14.7342 16.1718 14.9964C16.1695 15.2586 16.0643 15.5094 15.8789 15.6948C15.6935 15.8802 15.4427 15.9854 15.1805 15.9876C14.9183 15.9899 14.6657 15.8891 14.4771 15.707L9.66108 10.891C8.76344 11.5293 7.70743 11.9081 6.60876 11.9861C5.51009 12.0641 4.41115 11.8381 3.43238 11.3329C2.45361 10.8278 1.63277 10.063 1.05981 9.12232C0.486842 8.18165 0.183868 7.10141 0.184082 5.99997Z" fill="#6B7280"/>
</svg>
