<svg width="28" height="28" viewBox="0 0 28 28" fill="none" xmlns="http://www.w3.org/2000/svg">
<path d="M14.0001 23.6C10.6667 23.6 7.72008 21.8934 6.00008 19.3334C6.04008 16.6667 11.3334 15.2 14.0001 15.2C16.6667 15.2 21.9601 16.6667 22.0001 19.3334C20.2801 21.8934 17.3334 23.6 14.0001 23.6ZM14.0001 4.66669C15.0609 4.66669 16.0784 5.08811 16.8285 5.83826C17.5787 6.58841 18.0001 7.60582 18.0001 8.66669C18.0001 9.72755 17.5787 10.745 16.8285 11.4951C16.0784 12.2453 15.0609 12.6667 14.0001 12.6667C12.9392 12.6667 11.9218 12.2453 11.1717 11.4951C10.4215 10.745 10.0001 9.72755 10.0001 8.66669C10.0001 7.60582 10.4215 6.58841 11.1717 5.83826C11.9218 5.08811 12.9392 4.66669 14.0001 4.66669ZM14.0001 0.666687C12.2491 0.666687 10.5153 1.01156 8.89764 1.68163C7.27996 2.35169 5.81011 3.33382 4.57199 4.57193C2.07151 7.07242 0.666748 10.4638 0.666748 14C0.666748 17.5362 2.07151 20.9276 4.57199 23.4281C5.81011 24.6662 7.27996 25.6484 8.89764 26.3184C10.5153 26.9885 12.2491 27.3334 14.0001 27.3334C17.5363 27.3334 20.9277 25.9286 23.4282 23.4281C25.9287 20.9276 27.3334 17.5362 27.3334 14C27.3334 6.62669 21.3334 0.666687 14.0001 0.666687Z" fill="#A6A6A6"/>
</svg>
