<svg width="14" height="12" viewBox="0 0 14 12" fill="none" xmlns="http://www.w3.org/2000/svg">
<path d="M2.10943 7.25736C2.80385 7.25736 3.3668 6.69442 3.3668 5.99999C3.3668 5.30556 2.80385 4.74261 2.10943 4.74261C1.415 4.74261 0.852051 5.30556 0.852051 5.99999C0.852051 6.69442 1.415 7.25736 2.10943 7.25736Z" fill="black"/>
<path d="M2.10943 11.7686C2.80385 11.7686 3.3668 11.2057 3.3668 10.5113C3.3668 9.81682 2.80385 9.25388 2.10943 9.25388C1.415 9.25388 0.852051 9.81682 0.852051 10.5113C0.852051 11.2057 1.415 11.7686 2.10943 11.7686Z" fill="black"/>
<path d="M2.11028 2.74601C2.80464 2.74601 3.36753 2.18312 3.36753 1.48876C3.36753 0.794396 2.80464 0.231506 2.11028 0.231506C1.41592 0.231506 0.853027 0.794396 0.853027 1.48876C0.853027 2.18312 1.41592 2.74601 2.11028 2.74601Z" fill="black"/>
<path d="M5.08496 1.48874H13.1476" stroke="black" stroke-width="1.79171" stroke-miterlimit="10"/>
<path d="M5.08496 6H13.1476" stroke="black" stroke-width="1.79171" stroke-miterlimit="10"/>
<path d="M5.08496 10.5112H13.1476" stroke="black" stroke-width="1.79171" stroke-miterlimit="10"/>
</svg>
